<svg width="1400" height="900" viewBox="0 0 1400 900" xmlns="http://www.w3.org/2000/svg">
  <rect width="1400" height="900" fill="#090D16"/>
  <rect x="40" y="40" width="1320" height="820" rx="24" fill="#111827" stroke="#1F2937"/>
  <rect x="70" y="80" width="1260" height="90" rx="18" fill="#0F172A" stroke="#1E293B"/>
  <circle cx="115" cy="125" r="24" fill="#0EA5E9" opacity="0.9"/>
  <circle cx="115" cy="125" r="12" fill="#F8FAFC"/>
  <text x="160" y="116" fill="#F8FAFC" font-family="Segoe UI, Arial" font-size="28" font-weight="700">RAILCONNECT</text>
  <text x="160" y="145" fill="#94A3B8" font-family="Segoe UI, Arial" font-size="16">Real-Time Signal Routing &amp; Telemetry Control Center</text>

  <rect x="90" y="220" width="1220" height="540" rx="22" fill="#0F172A" stroke="#1E293B"/>
  <text x="120" y="270" fill="#F8FAFC" font-family="Segoe UI, Arial" font-size="30" font-weight="700">Route Planner</text>
  <text x="120" y="305" fill="#94A3B8" font-family="Segoe UI, Arial" font-size="18">Example journey: Delhi to Bangalore</text>

  <rect x="120" y="340" width="430" height="80" rx="14" fill="#111827" stroke="#334155"/>
  <text x="145" y="375" fill="#94A3B8" font-size="16">Origin</text>
  <text x="145" y="402" fill="#F8FAFC" font-size="24" font-weight="600">New Delhi (NDLS)</text>

  <rect x="610" y="340" width="430" height="80" rx="14" fill="#111827" stroke="#334155"/>
  <text x="635" y="375" fill="#94A3B8" font-size="16">Destination</text>
  <text x="635" y="402" fill="#F8FAFC" font-size="24" font-weight="600">Bengaluru (SBC)</text>

  <rect x="120" y="460" width="250" height="70" rx="14" fill="#111827" stroke="#334155"/>
  <text x="145" y="495" fill="#94A3B8" font-size="16">Departure Date</text>
  <text x="145" y="522" fill="#F8FAFC" font-size="20">2026-08-08</text>

  <rect x="410" y="460" width="250" height="70" rx="14" fill="#111827" stroke="#334155"/>
  <text x="435" y="495" fill="#94A3B8" font-size="16">Buffer Range</text>
  <text x="435" y="522" fill="#F8FAFC" font-size="20">45m – 6h</text>

  <rect x="700" y="460" width="250" height="70" rx="14" fill="#0EA5E9"/>
  <text x="730" y="500" fill="#F8FAFC" font-size="22" font-weight="700">Search Routes</text>

  <rect x="120" y="570" width="930" height="130" rx="18" fill="#111827" stroke="#1F2937"/>
  <rect x="140" y="590" width="180" height="24" rx="12" fill="#34D399"/>
  <text x="155" y="607" fill="#052E16" font-family="Segoe UI, Arial" font-size="14" font-weight="700">DIRECT ROUTE</text>
  <text x="140" y="650" fill="#F8FAFC" font-size="22" font-weight="600">New Delhi → Bengaluru</text>
  <text x="140" y="678" fill="#94A3B8" font-size="16">Estimated time: 24h 40m • Fare: ₹ 2,450</text>
</svg>